<?xml version="1.0" encoding="iso-8859-1"?>
<!-- Uploaded to: SVG Repo, www.svgrepo.com, Generator: SVG Repo Mixer Tools -->
<svg width="30px" version="1.1" id="Layer_1" xmlns="http://www.w3.org/2000/svg" xmlns:xlink="http://www.w3.org/1999/xlink" 
	 viewBox="0 0 496 496" xml:space="preserve">
<polygon style="fill:#1B97CE;" points="80,416 16,416 16,203.904 80,200 "/>
<polygon style="fill:#1982BC;" points="80,416 40.776,416 16,203.904 80,200 "/>
<polygon style="fill:#1B97CE;" points="480,416 416,416 416,200 480,203.952 "/>
<polygon style="fill:#1982BC;" points="455.24,416 416,416 416,200 480,203.952 "/>
<polygon style="fill:#1B97CE;" points="480,203.952 410.088,37.888 409.032,35.32 409.208,36.976 409.08,36.864 409.032,35.32 
	312.192,0 184.112,0 87.296,35.32 87.248,36.072 87.128,36.576 87.296,35.32 86.24,37.792 16.336,203.904 58.464,254.784 
	118.984,169.656 101.504,496 394.832,496 377.352,169.664 429.136,246.856 "/>
<polygon style="fill:#1982BC;" points="480,203.952 409.032,35.32 409.032,35.32 409.032,35.32 409.032,35.32 409.032,35.32 
	312.192,0 184.112,0 87.296,35.32 87.248,36.072 87.128,36.576 87.296,35.32 86.24,37.792 16.336,203.904 58.464,254.784 
	118.984,169.656 126.264,496 370.064,496 377.352,169.664 429.136,246.856 "/>
<polyline style="fill:#04647A;" points="87.248,36.864 87.128,36.976 87.296,35.32 86.24,37.888 "/>
<g>
	<polygon style="fill:#0C4875;" points="130.624,496 120.864,463.008 111.112,496 	"/>
	<polygon style="fill:#0C4875;" points="385.2,496 375.448,463.008 365.688,496 	"/>
</g>
<path style="fill:#0F73AA;" d="M137.664,17.776c32.688,11.312,70.368,18.976,110.504,18.976s77.816-8.056,110.488-19.352L312.192,0
	h-128.08L137.664,17.776z"/>
<path style="fill:#073D5E;" d="M313.576,2.08L312.192,0h-128.08l-1.592,2.144c16.304,15.584,39.568,28.152,65.488,28.152
	C273.96,30.288,297.272,17.68,313.576,2.08z"/>
<path style="fill:#0C4875;" d="M313.576,2.08L312.192,0h-128.08l-1.592,2.144c16.304,15.584,39.568,9.056,65.488,9.056
	C273.96,11.192,297.272,17.68,313.576,2.08z"/>
<g>
	<path style="fill:#0F73AA;" d="M114.984,173.784c-28.944-14.184-51.056-32.896-63.128-54.24L16,203.904"/>
	<path style="fill:#0F73AA;" d="M480,203.952l-35.68-84.744c-11.992,21.472-34.152,40.28-63.208,54.52"/>
	<path style="fill:#0F73AA;" d="M248.008,201.984c-48.776,0-93.552-8.232-128.856-24.64L126.264,496h243.8l7.128-318.816
		C341.832,193.688,296.928,201.984,248.008,201.984z"/>
</g>
<path style="fill:#1D6799;" d="M248.008,251.512c-48.776,0-93.552-57.768-128.856-74.168L126.264,496h243.8l7.128-318.816
	C341.832,193.688,296.928,251.512,248.008,251.512z"/>
<g>
	<path style="fill:#0F73AA;" d="M248.168,165.512c79.336,0,149.112-26.72,189.56-61.968l-12.736-30.28
		c-41.488,30.168-105.2,52-176.832,52c-71.624,0-135.336-21.832-176.824-52L58.6,103.544
		C99.056,138.792,168.824,165.512,248.168,165.512z"/>
	<path style="fill:#0F73AA;" d="M409.032,35.32L389.6,28.232c-38.592,18.48-88.36,32.024-141.432,32.024
		s-102.84-13.544-141.432-32.024L88.176,35l0,0l-0.872,0.32l0,0l-1.064,2.568l-6.88,16.304
		c41.488,27.192,101.72,46.304,168.8,46.304s127.312-19.112,168.8-46.304l-6.88-16.304L409.032,35.32L409.032,35.32"/>
</g>
<g>
	<path style="fill:#1D6799;" d="M77.208,427.4c0,1.272-0.632,2.296-1.4,2.296H21.872c-0.776,0-1.416-1.024-1.416-2.296v-5.728
		c0-1.272,0.648-2.296,1.416-2.296h53.936c0.768,0,1.4,1.024,1.4,2.296V427.4z"/>
	<path style="fill:#1D6799;" d="M475.544,427.4c0,1.272-0.632,2.296-1.4,2.296h-53.936c-0.768,0-1.416-1.024-1.416-2.296v-5.728
		c0-1.272,0.648-2.296,1.416-2.296h53.936c0.776,0,1.4,1.024,1.4,2.296V427.4z"/>
</g>
</svg>